<svg aria-hidden="true" style="position: absolute; width: 0; height: 0; overflow: hidden;" version="1.1" xmlns="http://www.w3.org/2000/svg" xmlns:xlink="http://www.w3.org/1999/xlink">
<defs>
<symbol id="icecream" viewBox="0 0 32 32">
<path d="M15.406 0.381c-2.063 0.188-3.912 1.494-4.819 3.4-0.244 0.513-0.525 1.406-0.525 1.662 0 0.056-0.106 0.175-0.244 0.269-0.675 0.469-1.556 1.575-1.956 2.462-1.206 2.656-0.269 5.994 2.156 7.725 0.231 0.163 0.419 0.344 0.419 0.4 0 0.125 4.9 14.85 5.006 15.056 0.1 0.194 0.456 0.35 0.681 0.3 0.1-0.019 0.244-0.106 0.325-0.188 0.106-0.106 0.788-2.081 2.631-7.606 1.363-4.1 2.481-7.506 2.481-7.563s0.188-0.238 0.425-0.4c0.544-0.387 1.188-1.056 1.544-1.594 1.525-2.287 1.506-5.1-0.038-7.344-0.288-0.412-1.094-1.25-1.413-1.469-0.094-0.063-0.163-0.225-0.231-0.519-0.25-1.056-0.769-2.006-1.538-2.794-1.319-1.35-3.019-1.975-4.906-1.8zM16.988 1.781c0.962 0.194 2.1 0.9 2.681 1.669 0.256 0.344 0.656 1.056 0.613 1.1-0.006 0.013-0.131-0.006-0.269-0.044-0.419-0.119-1.325-0.188-1.556-0.119-0.238 0.063-0.456 0.356-0.456 0.612 0 0.25 0.219 0.544 0.45 0.612 0.113 0.037 0.413 0.081 0.669 0.1 1.481 0.125 2.931 1.206 3.688 2.756 0.387 0.787 0.469 1.181 0.469 2.188 0 1.031-0.081 1.406-0.5 2.256-0.619 1.262-1.65 2.15-2.994 2.588-0.425 0.144-0.531 0.144-3.25 0.175-2.912 0.025-3.887-0.019-4.438-0.206-1.244-0.425-2.269-1.338-2.875-2.563-0.363-0.744-0.469-1.169-0.512-2.031-0.069-1.475 0.369-2.569 1.45-3.656 0.469-0.475 0.662-0.612 1.156-0.862 0.8-0.394 1.244-0.5 2.094-0.494 1.488 0.013 2.625 0.544 3.594 1.681 0.469 0.55 0.675 0.65 1.025 0.488 0.262-0.125 0.438-0.456 0.381-0.719-0.063-0.287-0.681-1.031-1.194-1.438-0.781-0.625-1.594-1.013-2.55-1.231-0.631-0.144-2.063-0.144-2.594 0.006-0.219 0.056-0.406 0.094-0.425 0.075-0.063-0.063 0.5-1.031 0.813-1.4 1.119-1.313 2.8-1.887 4.531-1.544zM19.938 17.044c0 0.094-3.906 11.769-3.938 11.769s-3.938-11.675-3.938-11.769c0-0.025 1.775-0.044 3.938-0.044 2.169 0 3.938 0.019 3.938 0.044z"></path>
</symbol>
</defs>
</svg>
